<svg width="1236" height="534" viewBox="0 0 1236 534" fill="none" xmlns="http://www.w3.org/2000/svg">
<circle cx="37.9194" cy="66.0051" r="37.9194" fill="url(#paint0_linear)"/>
<circle cx="1197.42" cy="365.361" r="37.9194" fill="url(#paint1_linear)"/>
<path fill-rule="evenodd" clip-rule="evenodd" d="M598.619 373.822C598.619 390.604 612.507 405.07 629.868 405.07C645.492 405.07 657.644 394.076 660.537 380.188C682.527 395.233 710.303 405.07 739.237 405.07C817.357 405.07 879.854 339.102 879.854 260.981C879.854 181.703 817.357 115.734 739.237 115.734C710.882 115.734 683.105 124.993 661.695 140.039V31.2483C661.695 14.4668 647.806 0 629.868 0C612.507 0 598.619 14.4668 598.619 31.2483V260.402V260.981V373.822ZM684.841 202.535C699.308 187.49 717.826 178.81 739.237 178.81C760.069 178.81 779.165 187.49 793.632 202.535C808.099 217.002 816.779 237.834 816.779 260.981C816.779 282.971 808.099 303.803 793.632 318.27C779.165 333.315 760.069 341.995 739.237 341.995C717.826 341.995 699.308 333.315 684.841 318.27C670.375 303.803 661.695 282.971 661.695 260.981C661.695 237.834 670.375 217.002 684.841 202.535ZM1062.51 204.937C1049.59 195.232 1032.32 191.497 1017.95 191.57C995.584 191.684 980.083 200.534 969.044 213.315C964.3 218.807 960.283 225.174 957.033 232.07H1081.27C1076.97 218.679 1069.78 210.398 1062.51 204.937ZM949.128 290.07H1114.3C1130.32 290.07 1143.3 277.087 1143.3 261.07C1143.3 212.875 1124.85 179.222 1097.35 158.563C1071.26 138.971 1040.28 133.456 1017.66 133.571C977.521 133.775 946.456 150.734 925.149 175.404C904.456 199.364 893.606 229.694 890.264 257.625C889.631 262.914 889.303 268.243 889.303 273.57C889.303 356.229 959.897 404.58 1016.54 407.043C1050.23 408.508 1075.71 401.344 1094.76 390.262C1113.68 379.253 1124.23 365.542 1129.78 357.377C1138.79 344.133 1135.35 326.096 1122.11 317.089C1108.87 308.083 1090.83 311.519 1081.82 324.763C1078.87 329.099 1074.17 335.138 1065.59 340.129C1057.14 345.047 1042.87 350.133 1019.06 349.098C990.902 347.873 957.244 325.811 949.128 290.07ZM346 43.8954C352.255 29.1509 345.372 12.1278 330.628 5.87317C315.883 -0.381421 298.86 6.50101 292.606 21.2455L173.618 301.746L101.943 135.112C95.6145 120.399 78.557 113.602 63.8441 119.93C49.1311 126.259 42.3342 143.316 48.6627 158.029L147.163 387.029C151.751 397.698 162.262 404.6 173.876 404.57C185.489 404.541 195.965 397.587 200.5 386.895L346 43.8954ZM350.803 133.07C366.819 133.07 379.803 146.054 379.803 162.07V268.57C379.803 303.088 407.785 331.07 442.303 331.07C476.821 331.07 504.803 303.088 504.803 268.57V162.07C504.803 146.054 517.787 133.07 533.803 133.07C549.819 133.07 562.803 146.054 562.803 162.07V268.57V408.998C562.803 479.051 505.01 535.303 434.983 533.41L431.599 533.319C394.487 532.316 360.11 513.915 338.679 483.821C334.39 478.765 331.803 472.22 331.803 465.07C331.803 449.054 344.787 436.07 360.803 436.07C370.562 436.07 379.195 440.891 384.451 448.281L384.575 448.2C395.342 464.667 413.499 474.808 433.166 475.34L436.55 475.431C473.943 476.442 504.803 446.405 504.803 408.998V371.615C486.58 382.692 465.186 389.07 442.303 389.07C375.753 389.07 321.803 335.121 321.803 268.57V162.07C321.803 146.054 334.787 133.07 350.803 133.07Z" fill="#1E0E62"/>
<defs>
<linearGradient id="paint0_linear" x1="50.4581" y1="28.0857" x2="16.8322" y2="178.129" gradientUnits="userSpaceOnUse">
<stop stop-color="#4FCFCF"/>
<stop offset="0.4375" stop-color="#00ADC5"/>
</linearGradient>
<linearGradient id="paint1_linear" x1="1209.96" y1="327.441" x2="1176.34" y2="477.484" gradientUnits="userSpaceOnUse">
<stop stop-color="#4FCFCF"/>
<stop offset="0.4375" stop-color="#00ADC5"/>
</linearGradient>
</defs>
</svg>
