<svg width="375" height="98" viewBox="0 0 375 98" fill="none" xmlns="http://www.w3.org/2000/svg">
<g clip-path="url(#clip0)">
<g clip-path="url(#clip1)">
<path d="M426.517 67.1216C410.592 52.384 390.274 40.0108 353.525 36.6188C253.087 27.3483 241.931 65.5659 141.493 56.2954C41.0551 47.0253 52.4991 7.82272 -47.9389 -1.44785C-148.377 -10.7184 -167.833 55.9309 -268.27 46.6604C-368.708 37.3899 -350.582 -24.7037 -451.02 -33.9742C-488.623 -37.4451 -513.231 -35.303 -534.797 -31.7716" stroke="#EBEAFC"/>
<path opacity="0.5" d="M426.377 67.6026C410.417 52.9774 390.081 40.6924 353.326 37.2999C252.888 28.0294 240.623 70.0465 140.185 60.7759C39.7476 51.5054 52.3677 8.27394 -48.0703 -0.996633C-148.508 -10.2672 -169.331 61.0638 -269.768 51.7932C-370.206 42.5227 -351.405 -21.8846 -451.843 -31.1552C-489.63 -34.643 -514.369 -31.1809 -536.466 -26.0524" stroke="#C5C9E0"/>
<path d="M426.327 67.7694C410.355 53.1848 390.01 40.9322 353.256 37.5397C252.818 28.2692 239.369 74.3382 138.931 65.0676C38.4941 55.7971 52.3665 8.27575 -48.0715 -0.994821C-148.509 -10.2654 -170.823 66.1731 -271.261 56.9026C-371.699 47.632 -352.11 -19.4699 -452.548 -28.7404C-490.126 -32.2089 -515.501 -27.5598 -537.976 -20.8826" stroke="#14B6C7" stroke-width="2"/>
<path opacity="0.5" d="M426.186 68.2565C410.181 53.7804 389.816 41.6131 353.058 38.2203C252.62 28.9497 238.061 78.8249 137.623 69.5544C37.1853 60.2838 52.236 8.72591 -48.2019 -0.544656C-148.64 -9.81523 -172.325 71.3216 -272.763 62.0511C-373.2 52.7805 -352.931 -16.6537 -453.369 -25.9242C-491.077 -29.4047 -516.656 -23.4427 -539.643 -15.1689" stroke="#14B6C7"/>
<path opacity="0.5" d="M426.154 68.3652C410.13 53.959 389.746 41.8469 352.99 38.4542C252.552 29.1836 236.834 83.026 136.396 73.7555C35.9587 64.4849 52.2362 8.72458 -48.2018 -0.54599C-148.64 -9.81656 -173.772 76.2786 -274.21 67.0081C-374.648 57.7375 -353.632 -14.2529 -454.07 -23.5235C-491.513 -26.9795 -517.782 -19.9076 -541.109 -10.1479" stroke="#14B6C7"/>
<path opacity="0.5" d="M426.005 68.8765C409.954 54.5651 389.541 42.5281 352.79 39.1359C252.352 29.8653 235.504 87.5807 135.066 78.3101C34.6289 69.0396 52.1047 9.17414 -48.3333 -0.0964315C-148.771 -9.367 -175.308 81.5364 -275.745 72.2659C-376.183 62.9953 -354.458 -11.4242 -454.896 -20.6948C-492.638 -24.1784 -518.916 -15.6599 -542.844 -4.20536" stroke="#14B6C7"/>
<path opacity="0.5" d="M425.985 68.9434C409.906 54.7257 389.478 42.7618 352.722 39.3692C252.284 30.0986 234.312 91.6656 133.874 82.3951C33.4364 73.1245 52.104 9.17658 -48.3339 -0.0939882C-148.772 -9.36456 -176.702 86.3138 -277.139 77.0432C-377.577 67.7727 -355.151 -9.05036 -455.589 -18.3209C-493.129 -21.7859 -520.008 -12.1624 -544.292 0.755895" stroke="#14B6C7"/>
<path opacity="0.5" d="M425.834 67.4624C409.727 53.3365 389.283 41.4456 352.523 38.0527C252.085 28.7821 232.988 94.2031 132.55 84.9326C32.1125 75.662 51.9728 7.6284 -48.4652 -1.64217C-148.903 -10.9127 -178.229 89.5481 -278.667 80.2776C-379.105 71.007 -355.975 -8.22754 -456.413 -17.4981C-494.077 -20.9746 -521.177 -10.0063 -545.98 4.5411" stroke="#14B6C7"/>
</g>
</g>
<defs>
<clipPath id="clip0">
<rect width="375" height="98" fill="white"/>
</clipPath>
<clipPath id="clip1">
<rect width="408" height="115" fill="white"/>
</clipPath>
</defs>
</svg>
