<svg width="990" height="109" viewBox="0 0 990 109" fill="none" xmlns="http://www.w3.org/2000/svg">
<g clip-path="url(#clip0)">
<rect width="990" height="109" fill="#F5F7F8"/>
<path d="M1215.69 47.623C1192.66 33.4729 1162.68 22.0269 1106.68 20.8362C953.648 17.5818 932.992 57.5515 779.956 54.2971C626.921 51.0433 648.109 10.0436 495.072 6.78921C342.036 3.53486 306.014 73.2396 152.978 69.9852C-0.0578153 66.7309 33.5023 1.79086 -119.534 -1.46348C-176.83 -2.68189 -214.735 1.056 -248.109 6.0317" stroke="#EBEAFC"/>
<path opacity="0.5" d="M1215.44 48.061C1192.35 34.0423 1162.34 22.6991 1106.35 21.5094C953.326 18.2582 930.619 62.1586 777.599 58.9074C624.58 55.6563 647.943 10.4871 494.923 7.23598C341.903 3.98481 303.354 78.5129 150.335 75.2617C-2.68448 72.0105 32.1225 4.71648 -120.897 1.46531C-178.468 0.242128 -216.693 5.33981 -251.027 11.9833" stroke="#C5C9E0"/>
<path d="M1215.35 48.1803C1192.25 34.2176 1162.22 22.9192 1106.23 21.7307C953.227 18.4826 928.333 66.5699 775.331 63.3219C622.33 60.0739 648.008 10.4707 495.006 7.22263C342.004 3.97461 300.7 83.7618 147.699 80.5138C-5.30311 77.2658 30.9559 7.22421 -122.046 3.97619C-179.29 2.76099 -218.596 9.11072 -253.649 17.3598" stroke="#14B6C7" stroke-width="2"/>
<path opacity="0.5" d="M1215.11 48.6337C1191.94 34.7956 1161.88 23.595 1105.89 22.4073C952.906 19.1619 925.958 71.1798 772.972 67.9344C619.987 64.689 647.844 10.9162 494.858 7.6708C341.872 4.42542 298.034 89.0479 145.049 85.8025C-7.9364 82.5571 29.5788 10.1401 -123.407 6.89468C-180.843 5.67626 -220.58 13.379 -256.561 23.2893" stroke="#14B6C7"/>
<path opacity="0.5" d="M1215.05 48.7024C1191.85 34.948 1161.76 23.8139 1105.78 22.6271C952.81 19.3843 923.722 75.4956 770.753 72.2527C617.785 69.0099 647.909 10.8999 494.941 7.65705C341.972 4.41422 295.46 94.1374 142.492 90.8946C-10.4764 87.6517 28.4156 12.6277 -124.553 9.38485C-181.578 8.17595 -222.471 17.052 -259.108 28.4973" stroke="#14B6C7"/>
<path opacity="0.5" d="M1214.79 49.1872C1191.54 35.5411 1161.4 24.4935 1105.44 23.3077C952.486 20.0672 921.309 80.1724 768.357 76.9318C615.406 73.6913 647.744 11.3469 494.792 8.1064C341.84 4.86585 292.736 99.5334 139.785 96.2928C-13.1676 93.0523 27.0324 15.5512 -125.92 12.3106C-183.394 11.0929 -224.431 21.4436 -262.142 34.6524" stroke="#14B6C7"/>
<path opacity="0.5" d="M1214.76 49.2203C1191.46 35.6805 1161.29 24.7158 1105.33 23.5306C952.39 20.2922 919.136 84.3672 766.2 81.1288C613.266 77.8903 647.805 11.3374 494.87 8.0989C341.934 4.86043 290.256 104.436 137.321 101.198C-15.6145 97.9594 25.8793 18.0069 -127.056 14.7685C-184.218 13.558 -226.273 25.0694 -264.662 39.7886" stroke="#14B6C7"/>
<path opacity="0.5" d="M1214.61 47.7057C1191.27 34.2697 1161.07 23.3871 1105.1 22.2025C952.185 18.966 916.854 87.0113 763.935 83.7748C611.016 80.5383 647.759 9.77559 494.839 6.53907C341.92 3.30254 287.665 107.793 134.746 104.557C-18.1731 101.32 24.6187 18.9073 -128.301 15.6707C-185.646 14.457 -228.16 27.3495 -267.491 43.7572" stroke="#14B6C7"/>
<rect x="610" y="-8" width="591" height="231" fill="url(#paint0_linear)"/>
<rect x="451" y="223" width="690" height="231" transform="rotate(-180 451 223)" fill="url(#paint1_linear)"/>
</g>
<defs>
<linearGradient id="paint0_linear" x1="987.543" y1="87.5" x2="533.267" y2="78.503" gradientUnits="userSpaceOnUse">
<stop stop-color="#F5F7F8"/>
<stop offset="1" stop-color="#F5F7F8" stop-opacity="0"/>
</linearGradient>
<linearGradient id="paint1_linear" x1="891.786" y1="318.5" x2="361.489" y2="306.238" gradientUnits="userSpaceOnUse">
<stop stop-color="#F5F7F8"/>
<stop offset="1" stop-color="#F5F7F8" stop-opacity="0"/>
</linearGradient>
<clipPath id="clip0">
<rect width="990" height="109" fill="white"/>
</clipPath>
</defs>
</svg>
